<?xml version="1.0" encoding="UTF-8"?>
<!DOCTYPE svg PUBLIC "-//W3C//DTD SVG 1.1//EN" "http://www.w3.org/Graphics/SVG/1.1/DTD/svg11.dtd">
<svg xmlns="http://www.w3.org/2000/svg" version="1.1" width="512px" height="512px" style="shape-rendering:geometricPrecision; text-rendering:geometricPrecision; image-rendering:optimizeQuality; fill-rule:evenodd; clip-rule:evenodd" xmlns:xlink="http://www.w3.org/1999/xlink">
<g><path style="opacity:0.995" fill="#d8ddfa" d="M 261.5,101.5 C 257.721,111.727 253.387,121.727 248.5,131.5C 245.15,131.335 241.817,131.502 238.5,132C 235.41,138.759 233.577,145.925 233,153.5C 221.979,157.737 211.146,162.57 200.5,168C 199.167,168.667 197.833,168.667 196.5,168C 191.833,164.667 187.167,161.333 182.5,158C 180.029,157.294 177.695,157.627 175.5,159C 169.333,165.167 163.167,171.333 157,177.5C 156.333,179.5 156.333,181.5 157,183.5C 158.844,186.528 160.678,189.528 162.5,192.5C 156,200.425 148,206.425 138.5,210.5C 135.336,214.838 136.336,217.838 141.5,219.5C 147.605,217.281 153.272,214.281 158.5,210.5C 159.452,212.045 159.785,213.712 159.5,215.5C 157.45,221.821 155.117,227.988 152.5,234C 145.782,235.077 139.115,236.41 132.5,238C 132,238.5 131.5,239 131,239.5C 130.333,250.167 130.333,260.833 131,271.5C 131.5,272 132,272.5 132.5,273C 139.115,274.59 145.782,275.923 152.5,277C 155.783,284.342 158.783,291.842 161.5,299.5C 160.486,300.765 158.986,301.431 157,301.5C 151.439,301.966 145.939,302.799 140.5,304C 136.896,305.334 135.729,307.834 137,311.5C 138.126,312.944 139.626,313.61 141.5,313.5C 149.915,311.419 158.249,311.086 166.5,312.5C 163.344,317.472 160.177,322.472 157,327.5C 156.333,329.5 156.333,331.5 157,333.5C 163.369,340.036 169.869,346.369 176.5,352.5C 175.816,354.449 174.649,356.115 173,357.5C 171.93,382.156 160.096,399.322 137.5,409C 136.409,411.064 136.242,413.231 137,415.5C 137.804,416.804 138.971,417.471 140.5,417.5C 147.476,415.597 153.643,412.263 159,407.5C 158.474,426.598 164.64,443.098 177.5,457C 183.493,458.668 185.993,456.502 185,450.5C 170.817,435.439 166.15,417.772 171,397.5C 175.31,389.572 178.644,381.238 181,372.5C 183.001,365.98 182.834,359.647 180.5,353.5C 186.204,350.642 191.537,347.142 196.5,343C 197.833,342.333 199.167,342.333 200.5,343C 211.146,348.43 221.979,353.263 233,357.5C 234.148,364.201 235.481,370.868 237,377.5C 237.5,378 238,378.5 238.5,379C 242.152,379.499 245.818,379.665 249.5,379.5C 253.782,389.063 257.782,398.73 261.5,408.5C 258.681,438.654 244.347,461.487 218.5,477C 189.671,491.271 161.004,490.938 132.5,476C 112.08,463.073 98.7463,444.907 92.5,421.5C 60.9778,407.479 44.6445,383.145 43.5,348.5C 42.9918,336.708 45.3252,325.542 50.5,315C 27.6855,294.483 19.1855,268.983 25,238.5C 28.7881,221.41 37.2881,207.244 50.5,196C 36.7848,161.948 42.4515,131.615 67.5,105C 74.9256,98.4155 83.2589,93.2488 92.5,89.5C 108.981,40.4206 142.981,18.9206 194.5,25C 233.731,35.7291 256.064,61.2291 261.5,101.5 Z"/></g>
<g><path style="opacity:1" fill="#c5cced" d="M 140.5,61.5 C 141.873,61.3433 143.207,61.51 144.5,62C 164.733,82.764 169.233,106.597 158,133.5C 153.488,136.657 150.655,135.491 149.5,130C 158.634,107.043 154.801,86.5433 138,68.5C 137.333,67.1667 137.333,65.8333 138,64.5C 139.045,63.6266 139.878,62.6266 140.5,61.5 Z"/></g>
<g><path style="opacity:0.973" fill="#fed44f" d="M 312.5,109.5 C 311.167,105.167 311.167,100.833 312.5,96.5C 317.156,83.3309 326.489,78.1642 340.5,81C 353.265,85.7886 358.432,94.9552 356,108.5C 349.877,124.51 338.71,129.344 322.5,123C 317.587,119.675 314.254,115.175 312.5,109.5 Z"/></g>
<g><path style="opacity:0.976" fill="#455a64" d="M 312.5,96.5 C 311.167,100.833 311.167,105.167 312.5,109.5C 299.167,109.5 285.833,109.5 272.5,109.5C 269.506,116.823 266.506,124.156 263.5,131.5C 258.5,131.5 253.5,131.5 248.5,131.5C 253.387,121.727 257.721,111.727 261.5,101.5C 262.601,100.152 263.601,98.6516 264.5,97C 280.497,96.5001 296.497,96.3334 312.5,96.5 Z"/></g>
<g><path style="opacity:1" fill="#c5cced" d="M 118.5,111.5 C 120.857,111.337 123.19,111.503 125.5,112C 127.673,113.865 128.007,116.031 126.5,118.5C 117.549,122.471 109.882,128.138 103.5,135.5C 120.834,156.297 124.334,179.297 114,204.5C 109.126,207.647 106.292,206.314 105.5,200.5C 111.824,182.942 110.657,165.942 102,149.5C 100.954,147.91 99.7875,146.41 98.5,145C 97.6683,144.312 97.0016,144.479 96.5,145.5C 92.7703,153.752 90.6036,162.419 90,171.5C 87.633,174.932 84.9663,175.265 82,172.5C 81.0651,144.28 93.2318,123.946 118.5,111.5 Z"/></g>
<g><path style="opacity:0.985" fill="#f35457" d="M 419.5,155.5 C 418.167,150.833 418.167,146.167 419.5,141.5C 423.971,129.427 432.637,124.26 445.5,126C 457.475,128.924 463.808,136.591 464.5,149C 461.857,166.305 451.857,173.638 434.5,171C 426.576,168.577 421.576,163.41 419.5,155.5 Z"/></g>
<g><path style="opacity:0.994" fill="#2196f2" d="M 248.5,131.5 C 253.5,131.5 258.5,131.5 263.5,131.5C 266.685,131.02 269.519,131.686 272,133.5C 273.332,140.839 275.165,148.006 277.5,155C 282.894,156.465 288.228,158.131 293.5,160C 298.834,162.918 304.334,165.418 310,167.5C 316.357,163.657 322.857,159.991 329.5,156.5C 332.443,158.106 335.109,160.106 337.5,162.5C 339.833,166.833 343.167,170.167 347.5,172.5C 350.073,174.91 352.073,177.743 353.5,181C 349.714,187.622 345.714,194.122 341.5,200.5C 347.652,210.451 352.152,221.118 355,232.5C 362.069,234.582 369.236,236.416 376.5,238C 377,238.5 377.5,239 378,239.5C 378.498,242.482 378.665,245.482 378.5,248.5C 378.5,252.833 378.5,257.167 378.5,261.5C 378.665,264.85 378.498,268.183 378,271.5C 377.5,272 377,272.5 376.5,273C 369.255,274.582 362.088,276.415 355,278.5C 352.152,289.882 347.652,300.549 341.5,310.5C 345.714,316.878 349.714,323.378 353.5,330C 351.735,333.596 349.402,336.763 346.5,339.5C 342.167,341.833 338.833,345.167 336.5,349.5C 334.438,351.564 332.105,353.231 329.5,354.5C 322.857,351.009 316.357,347.343 310,343.5C 304.334,345.582 298.834,348.082 293.5,351C 288.228,352.869 282.894,354.535 277.5,356C 275.165,362.994 273.332,370.161 272,377.5C 269.519,379.314 266.685,379.98 263.5,379.5C 258.833,379.5 254.167,379.5 249.5,379.5C 245.818,379.665 242.152,379.499 238.5,379C 238,378.5 237.5,378 237,377.5C 235.481,370.868 234.148,364.201 233,357.5C 221.979,353.263 211.146,348.43 200.5,343C 199.167,342.333 197.833,342.333 196.5,343C 191.537,347.142 186.204,350.642 180.5,353.5C 179.041,353.567 177.708,353.234 176.5,352.5C 169.869,346.369 163.369,340.036 157,333.5C 156.333,331.5 156.333,329.5 157,327.5C 160.177,322.472 163.344,317.472 166.5,312.5C 167.573,311.749 167.74,310.749 167,309.5C 165.392,305.944 163.559,302.611 161.5,299.5C 158.783,291.842 155.783,284.342 152.5,277C 145.782,275.923 139.115,274.59 132.5,273C 132,272.5 131.5,272 131,271.5C 130.333,260.833 130.333,250.167 131,239.5C 131.5,239 132,238.5 132.5,238C 139.115,236.41 145.782,235.077 152.5,234C 155.117,227.988 157.45,221.821 159.5,215.5C 162.285,210.506 164.952,205.339 167.5,200C 166.377,197.061 164.711,194.561 162.5,192.5C 160.678,189.528 158.844,186.528 157,183.5C 156.333,181.5 156.333,179.5 157,177.5C 163.167,171.333 169.333,165.167 175.5,159C 177.695,157.627 180.029,157.294 182.5,158C 187.167,161.333 191.833,164.667 196.5,168C 197.833,168.667 199.167,168.667 200.5,168C 211.146,162.57 221.979,157.737 233,153.5C 233.577,145.925 235.41,138.759 238.5,132C 241.817,131.502 245.15,131.335 248.5,131.5 Z M 251.5,196.5 C 293.553,200.383 313.719,223.383 312,265.5C 304.558,295.486 285.391,311.819 254.5,314.5C 228.925,312.97 210.759,300.637 200,277.5C 190.407,247.279 198.573,223.113 224.5,205C 233.09,200.444 242.09,197.61 251.5,196.5 Z"/></g>
<g><path style="opacity:0.93" fill="#455a64" d="M 419.5,141.5 C 418.167,146.167 418.167,150.833 419.5,155.5C 400.164,155.333 380.83,155.5 361.5,156C 356.934,161.664 352.267,167.164 347.5,172.5C 343.167,170.167 339.833,166.833 337.5,162.5C 343.262,155.564 349.262,148.73 355.5,142C 376.831,141.5 398.164,141.333 419.5,141.5 Z"/></g>
<g><path style="opacity:1" fill="#c4cced" d="M 162.5,192.5 C 164.711,194.561 166.377,197.061 167.5,200C 164.952,205.339 162.285,210.506 159.5,215.5C 159.785,213.712 159.452,212.045 158.5,210.5C 153.272,214.281 147.605,217.281 141.5,219.5C 136.336,217.838 135.336,214.838 138.5,210.5C 148,206.425 156,200.425 162.5,192.5 Z"/></g>
<g><path style="opacity:0.969" fill="#fea14d" d="M 441.5,261.5 C 441.5,257.167 441.5,252.833 441.5,248.5C 448.109,233.037 459.443,228.203 475.5,234C 488.102,242.981 490.935,254.481 484,268.5C 475.423,278.765 464.923,281.265 452.5,276C 446.735,272.738 443.069,267.905 441.5,261.5 Z"/></g>
<g><path style="opacity:0.984" fill="#455a63" d="M 378.5,248.5 C 399.5,248.5 420.5,248.5 441.5,248.5C 441.5,252.833 441.5,257.167 441.5,261.5C 420.5,261.5 399.5,261.5 378.5,261.5C 378.5,257.167 378.5,252.833 378.5,248.5 Z"/></g>
<g><path style="opacity:1" fill="#c5cced" d="M 75.5,250.5 C 78.1569,250.162 80.4902,250.829 82.5,252.5C 95.0412,265.964 100.875,281.964 100,300.5C 105.357,295.737 111.524,292.403 118.5,290.5C 121.302,290.971 122.636,292.638 122.5,295.5C 122.61,297.374 121.944,298.874 120.5,300C 98.1869,309.761 86.6869,326.928 86,351.5C 83,354.167 80,354.167 77,351.5C 76.0015,342.489 77.3348,333.823 81,325.5C 95.4827,301.054 93.1494,278.387 74,257.5C 73.1668,254.829 73.6668,252.496 75.5,250.5 Z"/></g>
<g><path style="opacity:1" fill="#c4cced" d="M 161.5,299.5 C 163.559,302.611 165.392,305.944 167,309.5C 167.74,310.749 167.573,311.749 166.5,312.5C 158.249,311.086 149.915,311.419 141.5,313.5C 139.626,313.61 138.126,312.944 137,311.5C 135.729,307.834 136.896,305.334 140.5,304C 145.939,302.799 151.439,301.966 157,301.5C 158.986,301.431 160.486,300.765 161.5,299.5 Z"/></g>
<g><path style="opacity:0.97" fill="#445a64" d="M 346.5,339.5 C 351.29,345.461 356.29,351.294 361.5,357C 380.164,357.5 398.83,357.667 417.5,357.5C 417.5,362.167 417.5,366.833 417.5,371.5C 396.497,371.667 375.497,371.5 354.5,371C 348.665,363.668 342.665,356.501 336.5,349.5C 338.833,345.167 342.167,341.833 346.5,339.5 Z"/></g>
<g><path style="opacity:0.975" fill="#5bb673" d="M 417.5,371.5 C 417.5,366.833 417.5,362.167 417.5,357.5C 424.844,341.435 436.844,336.602 453.5,343C 466.46,352.917 468.96,365.084 461,379.5C 448.308,392.362 435.308,392.695 422,380.5C 420.213,377.637 418.713,374.637 417.5,371.5 Z"/></g>
<g><path style="opacity:1" fill="#c5cced" d="M 176.5,352.5 C 177.708,353.234 179.041,353.567 180.5,353.5C 182.834,359.647 183.001,365.98 181,372.5C 178.644,381.238 175.31,389.572 171,397.5C 166.15,417.772 170.817,435.439 185,450.5C 185.993,456.502 183.493,458.668 177.5,457C 164.64,443.098 158.474,426.598 159,407.5C 153.643,412.263 147.476,415.597 140.5,417.5C 138.971,417.471 137.804,416.804 137,415.5C 136.242,413.231 136.409,411.064 137.5,409C 160.096,399.322 171.93,382.156 173,357.5C 174.649,356.115 175.816,354.449 176.5,352.5 Z"/></g>
<g><path style="opacity:0.989" fill="#455a64" d="M 249.5,379.5 C 254.167,379.5 258.833,379.5 263.5,379.5C 266.488,386.145 269.488,392.812 272.5,399.5C 285.149,400.499 297.816,400.832 310.5,400.5C 310.5,404.833 310.5,409.167 310.5,413.5C 294.833,413.5 279.167,413.5 263.5,413.5C 263.598,411.447 262.931,409.78 261.5,408.5C 257.782,398.73 253.782,389.063 249.5,379.5 Z"/></g>
<g><path style="opacity:0.988" fill="#f45457" d="M 310.5,413.5 C 310.5,409.167 310.5,404.833 310.5,400.5C 317.015,384.826 328.349,379.66 344.5,385C 357.273,392.983 361.106,404.149 356,418.5C 347.087,432.02 335.254,435.187 320.5,428C 315.426,424.416 312.093,419.583 310.5,413.5 Z"/></g>
</svg>
