<?xml version="1.0" encoding="UTF-8"?>
<!DOCTYPE svg PUBLIC "-//W3C//DTD SVG 1.1//EN" "http://www.w3.org/Graphics/SVG/1.1/DTD/svg11.dtd">
<svg xmlns="http://www.w3.org/2000/svg" version="1.1" width="327px" height="345px" style="shape-rendering:geometricPrecision; text-rendering:geometricPrecision; image-rendering:optimizeQuality; fill-rule:evenodd; clip-rule:evenodd" xmlns:xlink="http://www.w3.org/1999/xlink">
<g><path style="opacity:1" fill="#fefefe" d="M -0.5,-0.5 C 108.5,-0.5 217.5,-0.5 326.5,-0.5C 326.5,114.5 326.5,229.5 326.5,344.5C 217.5,344.5 108.5,344.5 -0.5,344.5C -0.5,229.5 -0.5,114.5 -0.5,-0.5 Z"/></g>
<g><path style="opacity:1" fill="#475d66" d="M 152.5,0.5 C 155.325,0.0807292 157.491,1.08073 159,3.5C 159.667,13.8333 159.667,24.1667 159,34.5C 156.791,36.7064 154.291,37.0398 151.5,35.5C 150.334,24.5151 150.168,13.5151 151,2.5C 151.717,1.9558 152.217,1.28913 152.5,0.5 Z"/></g>
<g><path style="opacity:1" fill="#475d67" d="M 250.5,40.5 C 255.459,39.6278 257.625,41.6278 257,46.5C 250.167,53.3333 243.333,60.1667 236.5,67C 231.237,69.0784 228.737,67.2451 229,61.5C 236.062,54.2701 243.229,47.2701 250.5,40.5 Z"/></g>
<g><path style="opacity:1" fill="#465c66" d="M 54.5,41.5 C 56.1992,41.3398 57.8659,41.5065 59.5,42C 66.3638,49.1983 73.5305,56.0316 81,62.5C 81.5,67.3333 79.3333,69.5 74.5,69C 67.3333,61.8333 60.1667,54.6667 53,47.5C 52.2516,45.1599 52.7516,43.1599 54.5,41.5 Z"/></g>
<g><path style="opacity:1" fill="#f36b25" d="M 126.5,47.5 C 137.776,46.0451 144.943,50.7118 148,61.5C 148.667,113.833 148.667,166.167 148,218.5C 145.41,229.387 138.576,233.553 127.5,231C 124.048,229.209 120.882,227.042 118,224.5C 102.638,227.822 93.3048,221.822 90,206.5C 78.0239,203.36 71.1906,195.693 69.5,183.5C 69.7259,181.811 70.0592,180.145 70.5,178.5C 56.7607,168.778 54.0941,156.611 62.5,142C 54.223,128.456 56.3897,116.956 69,107.5C 66.2572,90.9078 73.0905,80.7411 89.5,77C 90.7933,67.0707 96.1266,60.404 105.5,57C 109.5,56.6667 113.5,56.3333 117.5,56C 119.74,52.2574 122.74,49.424 126.5,47.5 Z"/></g>
<g><path style="opacity:1" fill="#177e41" d="M 171.5,47.5 C 180.243,46.1342 187.243,48.9675 192.5,56C 208.062,55.0626 217.395,62.2293 220.5,77.5C 236.472,81.3107 242.972,91.3107 240,107.5C 252.782,116.961 254.949,128.461 246.5,142C 252.608,150.758 253.108,159.924 248,169.5C 245.629,172.206 242.963,174.539 240,176.5C 241.432,191.174 235.266,200.674 221.5,205C 219.093,214.409 213.426,221.076 204.5,225C 200.132,225.709 195.799,225.542 191.5,224.5C 185.105,231.849 177.438,233.683 168.5,230C 164.619,227.072 162.119,223.239 161,218.5C 160.333,167.167 160.333,115.833 161,64.5C 161.475,56.8793 164.975,51.2126 171.5,47.5 Z"/></g>
<g><path style="opacity:1" fill="#22964c" d="M 187.5,63.5 C 185.5,63.5 183.5,63.5 181.5,63.5C 181.5,69.5 181.5,75.5 181.5,81.5C 184.5,81.5 187.5,81.5 190.5,81.5C 190.822,75.642 190.489,69.9753 189.5,64.5C 194.756,61.8478 200.09,61.8478 205.5,64.5C 205.334,69.8437 205.501,75.1771 206,80.5C 208.041,81.4231 210.208,81.7564 212.5,81.5C 211.972,82.8474 211.805,84.1807 212,85.5C 219.715,82.3484 226.215,84.015 231.5,90.5C 230.89,91.391 230.557,92.391 230.5,93.5C 229.876,93.9169 229.543,94.5836 229.5,95.5C 230.051,99.9922 230.718,104.326 231.5,108.5C 231.047,109.458 230.381,110.292 229.5,111C 243.062,113.545 247.895,121.378 244,134.5C 241.913,138.302 238.746,140.802 234.5,142C 236.727,142.941 238.727,144.108 240.5,145.5C 239.194,151.599 239.194,157.599 240.5,163.5C 241.263,164.268 242.263,164.768 243.5,165C 239.913,169.626 235.246,172.46 229.5,173.5C 230.243,174.182 230.909,174.849 231.5,175.5C 230.513,180.305 230.179,185.305 230.5,190.5C 229.694,194.274 227.361,196.774 223.5,198C 220.207,199.608 216.873,199.775 213.5,198.5C 213.29,201.386 213.123,204.386 213,207.5C 212.626,209.491 211.793,211.158 210.5,212.5C 210.5,208.167 210.5,203.833 210.5,199.5C 208.901,199.232 207.568,199.566 206.5,200.5C 205.782,205.963 206.115,211.296 207.5,216.5C 203.408,219.227 199.074,219.894 194.5,218.5C 196.5,218.5 198.5,218.5 200.5,218.5C 200.5,212.5 200.5,206.5 200.5,200.5C 197.167,200.5 193.833,200.5 190.5,200.5C 190.5,205.833 190.5,211.167 190.5,216.5C 189.206,215.71 188.039,214.71 187,213.5C 186.802,215.382 186.302,217.048 185.5,218.5C 183.378,224.742 179.044,226.909 172.5,225C 169.331,222.478 167.331,219.312 166.5,215.5C 167.404,216.209 167.737,217.209 167.5,218.5C 170.167,218.5 172.833,218.5 175.5,218.5C 175.5,212.5 175.5,206.5 175.5,200.5C 172.5,200.5 169.5,200.5 166.5,200.5C 166.5,188.167 166.5,175.833 166.5,163.5C 169.335,164.786 172.168,164.786 175,163.5C 175.499,157.509 175.666,151.509 175.5,145.5C 172.5,145.5 169.5,145.5 166.5,145.5C 166.5,133.167 166.5,120.833 166.5,108.5C 169.335,109.786 172.168,109.786 175,108.5C 175.499,102.509 175.666,96.5092 175.5,90.5C 172.5,90.5 169.5,90.5 166.5,90.5C 166.334,81.4938 166.5,72.4938 167,63.5C 169.902,53.1359 175.902,50.8025 185,56.5C 186.903,58.441 187.736,60.7743 187.5,63.5 Z"/></g>
<g><path style="opacity:1" fill="#f38f2c" d="M 130.5,53.5 C 130.334,61.5069 130.5,69.5069 131,77.5C 134.699,82.0272 138.532,86.3605 142.5,90.5C 142.5,92.8333 142.5,95.1667 142.5,97.5C 137.195,91.8596 131.861,86.1929 126.5,80.5C 126.5,72.1667 126.5,63.8333 126.5,55.5C 127.514,54.3263 128.847,53.6596 130.5,53.5 Z"/></g>
<g><path style="opacity:1" fill="#f3902e" d="M 132.5,53.5 C 134.306,54.0241 135.972,54.6908 137.5,55.5C 137.334,62.175 137.5,68.8417 138,75.5C 139.517,77.2395 141.017,78.9062 142.5,80.5C 142.5,82.8333 142.5,85.1667 142.5,87.5C 139.565,84.0622 136.399,80.7289 133,77.5C 132.5,69.5069 132.334,61.5069 132.5,53.5 Z"/></g>
<g><path style="opacity:1" fill="#fef2e6" d="M 137.5,55.5 C 138.5,55.8333 139.167,56.5 139.5,57.5C 139.334,63.1764 139.501,68.8431 140,74.5C 140.377,75.9423 141.21,76.9423 142.5,77.5C 142.5,78.5 142.5,79.5 142.5,80.5C 141.017,78.9062 139.517,77.2395 138,75.5C 137.5,68.8417 137.334,62.175 137.5,55.5 Z"/></g>
<g><path style="opacity:1" fill="#f38f2d" d="M 123.5,58.5 C 123.334,66.1739 123.5,73.8406 124,81.5C 130.397,87.7286 136.564,94.0619 142.5,100.5C 142.5,102.833 142.5,105.167 142.5,107.5C 136.806,102.473 131.473,97.1396 126.5,91.5C 123.612,88.7737 121.279,85.6071 119.5,82C 115.633,81.6924 114.633,83.3591 116.5,87C 119.494,87.4057 121.661,88.9057 123,91.5C 123.17,102.674 123.67,113.674 124.5,124.5C 129.976,130.166 135.809,135.5 142,140.5C 142.464,139.906 142.631,139.239 142.5,138.5C 142.906,141.281 142.906,144.281 142.5,147.5C 142.906,150.281 142.906,153.281 142.5,156.5C 132.206,148.044 122.039,139.377 112,130.5C 111.333,117.5 111.333,104.5 112,91.5C 114.338,88.886 114.005,86.886 111,85.5C 109.268,85.7336 108.434,86.7336 108.5,88.5C 109.3,102.808 109.8,117.141 110,131.5C 120.705,141.043 131.539,150.376 142.5,159.5C 142.5,161.5 142.5,163.5 142.5,165.5C 131.68,156.913 121.013,148.08 110.5,139C 108.343,137.019 106.676,134.686 105.5,132C 101.633,131.692 100.633,133.359 102.5,137C 103.833,137.333 105.167,137.667 106.5,138C 118.039,148.541 129.872,158.708 142,168.5C 142.464,167.906 142.631,167.239 142.5,166.5C 142.906,169.281 142.906,172.281 142.5,175.5C 127.938,163.293 113.438,150.96 99,138.5C 98.2036,125.474 98.3703,112.474 99.5,99.5C 99.5658,97.7336 98.7324,96.7336 97,96.5C 95.2676,96.7336 94.4342,97.7336 94.5,99.5C 95.646,122.143 95.8126,144.809 95,167.5C 88.9613,173.043 82.7947,178.376 76.5,183.5C 76.6243,179.588 77.6243,175.921 79.5,172.5C 78.8333,172.5 78.1667,172.5 77.5,172.5C 77.5,152.167 77.5,131.833 77.5,111.5C 78.552,111.649 79.552,111.483 80.5,111C 78.9586,109.629 77.6253,108.129 76.5,106.5C 78.0881,104.473 78.5881,102.139 78,99.5C 77.3292,98.7476 76.4959,98.4142 75.5,98.5C 75.2857,92.9184 77.619,88.9184 82.5,86.5C 82.6666,99.8375 82.4999,113.171 82,126.5C 79.3613,130.758 80.528,132.758 85.5,132.5C 85.6747,130.379 85.3414,128.379 84.5,126.5C 84.5,112.833 84.5,99.1667 84.5,85.5C 85.7079,84.7659 87.0413,84.4326 88.5,84.5C 88.5,104.833 88.5,125.167 88.5,145.5C 86.3857,149.833 87.719,151.833 92.5,151.5C 92.6747,149.379 92.3414,147.379 91.5,145.5C 91.5,125.167 91.5,104.833 91.5,84.5C 92.5,84.5 93.5,84.5 94.5,84.5C 94.7218,87.0764 96.0551,87.9098 98.5,87C 99.6053,84.8797 99.6053,82.7131 98.5,80.5C 98.5,77.1667 98.5,73.8333 98.5,70.5C 99.0798,68.2512 100.413,66.5846 102.5,65.5C 102.808,83.8611 102.474,102.194 101.5,120.5C 101.747,123.082 103.08,123.915 105.5,123C 106.059,122.275 106.392,121.442 106.5,120.5C 105.858,101.687 105.191,83.0199 104.5,64.5C 105.78,63.0687 107.447,62.4021 109.5,62.5C 109.68,66.2155 109.346,69.8822 108.5,73.5C 108.434,75.2664 109.268,76.2664 111,76.5C 112.732,76.2664 113.566,75.2664 113.5,73.5C 111.906,70.0145 111.24,66.3479 111.5,62.5C 112.833,62.5 114.167,62.5 115.5,62.5C 116.221,64.3818 117.221,64.7152 118.5,63.5C 119.15,63.8039 119.817,64.1373 120.5,64.5C 121.518,62.4061 122.518,60.4061 123.5,58.5 Z"/></g>
<g><path style="opacity:1" fill="#f4943a" d="M 139.5,57.5 C 140.793,58.842 141.626,60.5087 142,62.5C 142.499,67.4889 142.666,72.4889 142.5,77.5C 141.21,76.9423 140.377,75.9423 140,74.5C 139.501,68.8431 139.334,63.1764 139.5,57.5 Z"/></g>
<g><path style="opacity:1" fill="#facaa6" d="M 115.5,62.5 C 116.609,62.5569 117.609,62.8902 118.5,63.5C 117.221,64.7152 116.221,64.3818 115.5,62.5 Z"/></g>
<g><path style="opacity:1" fill="#f6af67" d="M 124.5,56.5 C 124.842,55.6618 125.508,55.3284 126.5,55.5C 126.5,63.8333 126.5,72.1667 126.5,80.5C 125.833,72.5 125.167,64.5 124.5,56.5 Z"/></g>
<g><path style="opacity:1" fill="#ebf5ef" d="M 172.5,63.5 C 173.5,63.5 174.5,63.5 175.5,63.5C 175.5,69.5 175.5,75.5 175.5,81.5C 174.167,81.5 172.833,81.5 171.5,81.5C 171.211,75.4093 171.545,69.4093 172.5,63.5 Z"/></g>
<g><path style="opacity:1" fill="#fbfdfc" d="M 187.5,63.5 C 187.409,65.6977 188.075,66.0311 189.5,64.5C 190.489,69.9753 190.822,75.642 190.5,81.5C 187.5,81.5 184.5,81.5 181.5,81.5C 181.5,75.5 181.5,69.5 181.5,63.5C 183.5,63.5 185.5,63.5 187.5,63.5 Z"/></g>
<g><path style="opacity:1" fill="#f2f9f5" d="M 196.5,63.5 C 197.833,63.5 199.167,63.5 200.5,63.5C 200.5,69.5 200.5,75.5 200.5,81.5C 199.167,81.5 197.833,81.5 196.5,81.5C 196.153,75.4191 196.153,69.4191 196.5,63.5 Z"/></g>
<g><path style="opacity:1" fill="#fee2c9" d="M 104.5,64.5 C 105.191,83.0199 105.858,101.687 106.5,120.5C 106.392,121.442 106.059,122.275 105.5,123C 103.08,123.915 101.747,123.082 101.5,120.5C 102.474,102.194 102.808,83.8611 102.5,65.5C 102.842,64.6618 103.508,64.3284 104.5,64.5 Z"/></g>
<g><path style="opacity:1" fill="#e6f2ea" d="M 205.5,64.5 C 206.794,65.2899 207.961,66.2899 209,67.5C 209.175,71.211 209.675,74.8776 210.5,78.5C 211.308,76.5767 211.808,74.5767 212,72.5C 213.754,75.4918 213.921,78.4918 212.5,81.5C 210.208,81.7564 208.041,81.4231 206,80.5C 205.501,75.1771 205.334,69.8437 205.5,64.5 Z"/></g>
<g><path style="opacity:1" fill="#4ca96c" d="M 184.5,66.5 C 185.5,66.5 186.5,66.5 187.5,66.5C 187.5,70.5 187.5,74.5 187.5,78.5C 186.5,78.5 185.5,78.5 184.5,78.5C 184.5,74.5 184.5,70.5 184.5,66.5 Z"/></g>
<g><path style="opacity:1" fill="#fef3ea" d="M 109.5,62.5 C 110.167,62.5 110.833,62.5 111.5,62.5C 111.24,66.3479 111.906,70.0145 113.5,73.5C 113.566,75.2664 112.732,76.2664 111,76.5C 109.268,76.2664 108.434,75.2664 108.5,73.5C 109.346,69.8822 109.68,66.2155 109.5,62.5 Z"/></g>
<g><path style="opacity:1" fill="#f8c18c" d="M 98.5,70.5 C 98.5,73.8333 98.5,77.1667 98.5,80.5C 97.8333,78.1667 97.1667,75.8333 96.5,73.5C 96.9321,72.2905 97.5987,71.2905 98.5,70.5 Z"/></g>
<g><path style="opacity:1" fill="#feeee0" d="M 130.5,53.5 C 131.167,53.5 131.833,53.5 132.5,53.5C 132.334,61.5069 132.5,69.5069 133,77.5C 136.399,80.7289 139.565,84.0622 142.5,87.5C 142.5,88.5 142.5,89.5 142.5,90.5C 138.532,86.3605 134.699,82.0272 131,77.5C 130.5,69.5069 130.334,61.5069 130.5,53.5 Z"/></g>
<g><path style="opacity:1" fill="#fefcfa" d="M 91.5,145.5 C 92.3414,147.379 92.6747,149.379 92.5,151.5C 87.719,151.833 86.3857,149.833 88.5,145.5C 89.3319,125.337 89.8319,105.004 90,84.5C 90.1681,105.004 90.6681,125.337 91.5,145.5 Z"/></g>
<g><path style="opacity:1" fill="#fdecdb" d="M 124.5,56.5 C 125.167,64.5 125.833,72.5 126.5,80.5C 131.861,86.1929 137.195,91.8596 142.5,97.5C 142.5,98.5 142.5,99.5 142.5,100.5C 136.564,94.0619 130.397,87.7286 124,81.5C 123.5,73.8406 123.334,66.1739 123.5,58.5C 123.833,57.8333 124.167,57.1667 124.5,56.5 Z"/></g>
<g><path style="opacity:1" fill="#fde8d6" d="M 96.5,73.5 C 97.1667,75.8333 97.8333,78.1667 98.5,80.5C 99.6053,82.7131 99.6053,84.8797 98.5,87C 96.0551,87.9098 94.7218,87.0764 94.5,84.5C 98.0956,86.3122 98.9289,85.6455 97,82.5C 96.502,79.5184 96.3354,76.5184 96.5,73.5 Z"/></g>
<g><path style="opacity:1" fill="#fefaf7" d="M 82.5,86.5 C 83.1667,99.8333 83.8333,113.167 84.5,126.5C 85.3414,128.379 85.6747,130.379 85.5,132.5C 80.528,132.758 79.3613,130.758 82,126.5C 82.4999,113.171 82.6666,99.8375 82.5,86.5 Z"/></g>
<g><path style="opacity:1" fill="#f5faf7" d="M 166.5,90.5 C 169.5,90.5 172.5,90.5 175.5,90.5C 175.666,96.5092 175.499,102.509 175,108.5C 172.168,109.786 169.335,109.786 166.5,108.5C 166.5,102.5 166.5,96.5 166.5,90.5 Z"/></g>
<g><path style="opacity:1" fill="#f1f8f3" d="M 191.5,90.5 C 194.448,90.2229 197.281,90.5562 200,91.5C 200.807,97.4163 200.641,103.25 199.5,109C 196.571,109.777 193.737,109.61 191,108.5C 190.212,102.418 190.379,96.418 191.5,90.5 Z"/></g>
<g><path style="opacity:1" fill="#f9fcfa" d="M 209.5,90.5 C 209.5,96.5 209.5,102.5 209.5,108.5C 208.5,108.5 207.5,108.5 206.5,108.5C 206.153,102.419 206.153,96.4191 206.5,90.5C 207.5,90.5 208.5,90.5 209.5,90.5 Z"/></g>
<g><path style="opacity:1" fill="#a5d5b7" d="M 209.5,90.5 C 210.49,96.6446 210.823,102.978 210.5,109.5C 208.901,109.768 207.568,109.434 206.5,108.5C 207.5,108.5 208.5,108.5 209.5,108.5C 209.5,102.5 209.5,96.5 209.5,90.5 Z"/></g>
<g><path style="opacity:1" fill="#e9f5ed" d="M 215.5,90.5 C 218.777,90.2161 221.943,90.5495 225,91.5C 225.807,97.4163 225.641,103.25 224.5,109C 221.571,109.777 218.737,109.61 216,108.5C 215.501,102.509 215.334,96.5092 215.5,90.5 Z"/></g>
<g><path style="opacity:1" fill="#eff6f2" d="M 231.5,90.5 C 235.128,95.8618 235.461,101.529 232.5,107.5C 231.659,102.99 230.992,98.3236 230.5,93.5C 230.557,92.391 230.89,91.391 231.5,90.5 Z"/></g>
<g><path style="opacity:1" fill="#f7b471" d="M 127.5,95.5 C 126.507,104.318 126.173,113.318 126.5,122.5C 125.178,113.325 125.178,103.992 126.5,94.5C 127.107,94.6236 127.44,94.9569 127.5,95.5 Z"/></g>
<g><path style="opacity:1" fill="#62b47f" d="M 169.5,93.5 C 170.5,93.5 171.5,93.5 172.5,93.5C 172.5,97.5 172.5,101.5 172.5,105.5C 171.5,105.5 170.5,105.5 169.5,105.5C 169.5,101.5 169.5,97.5 169.5,93.5 Z"/></g>
<g><path style="opacity:1" fill="#2e9c55" d="M 194.5,93.5 C 195.794,95.0478 196.461,97.0478 196.5,99.5C 196.167,101.5 195.833,103.5 195.5,105.5C 194.509,101.555 194.176,97.5546 194.5,93.5 Z"/></g>
<g><path style="opacity:1" fill="#3fa464" d="M 219.5,93.5 C 220.794,95.0478 221.461,97.0478 221.5,99.5C 221.167,101.5 220.833,103.5 220.5,105.5C 219.509,101.555 219.176,97.5546 219.5,93.5 Z"/></g>
<g><path style="opacity:1" fill="#f39131" d="M 127.5,95.5 C 128.79,96.0577 129.623,97.0577 130,98.5C 130.359,103.859 130.359,109.193 130,114.5C 131.333,115.833 132.667,115.833 134,114.5C 134.106,111.586 133.606,108.752 132.5,106C 133.042,101.786 134.542,101.619 137,105.5C 136.865,108.754 137.031,111.92 137.5,115C 141.283,115.531 142.283,114.031 140.5,110.5C 140.97,109.537 141.637,109.537 142.5,110.5C 142.5,119.5 142.5,128.5 142.5,137.5C 141.85,137.196 141.183,136.863 140.5,136.5C 140.167,134.167 139.833,131.833 139.5,129.5C 139.578,125.298 140.078,121.298 141,117.5C 139.667,116.167 138.333,116.167 137,117.5C 137.438,122.797 137.438,128.13 137,133.5C 134.973,132.307 133.473,130.64 132.5,128.5C 135.903,124.016 134.903,121.683 129.5,121.5C 131.131,129.139 130.131,129.472 126.5,122.5C 126.173,113.318 126.507,104.318 127.5,95.5 Z"/></g>
<g><path style="opacity:1" fill="#e8f4ec" d="M 181.5,90.5 C 182.833,90.5 184.167,90.5 185.5,90.5C 185.5,96.8333 185.5,103.167 185.5,109.5C 184.167,109.5 182.833,109.5 181.5,109.5C 181.177,103.067 181.177,96.7339 181.5,90.5 Z"/></g>
<g><path style="opacity:1" fill="#a0d2b4" d="M 230.5,93.5 C 230.992,98.3236 231.659,102.99 232.5,107.5C 232.5,108.167 232.167,108.5 231.5,108.5C 230.718,104.326 230.051,99.9922 229.5,95.5C 229.543,94.5836 229.876,93.9169 230.5,93.5 Z"/></g>
<g><path style="opacity:1" fill="#fce5cf" d="M 126.5,91.5 C 124.523,102.116 123.856,113.116 124.5,124.5C 123.67,113.674 123.17,102.674 123,91.5C 121.661,88.9057 119.494,87.4057 116.5,87C 114.633,83.3591 115.633,81.6924 119.5,82C 121.279,85.6071 123.612,88.7737 126.5,91.5 Z"/></g>
<g><path style="opacity:1" fill="#feeadd" d="M 75.5,98.5 C 76.4959,98.4142 77.3292,98.7476 78,99.5C 78.5881,102.139 78.0881,104.473 76.5,106.5C 74.8106,103.825 74.4773,101.158 75.5,98.5 Z"/></g>
<g><path style="opacity:1" fill="#fbdbbc" d="M 82.5,86.5 C 82.8417,85.6618 83.5084,85.3284 84.5,85.5C 84.5,99.1667 84.5,112.833 84.5,126.5C 83.8333,113.167 83.1667,99.8333 82.5,86.5 Z"/></g>
<g><path style="opacity:1" fill="#f38b24" d="M 74.5,112.5 C 74.5,122.167 74.5,131.833 74.5,141.5C 72.847,141.34 71.5137,140.674 70.5,139.5C 70.5,131.167 70.5,122.833 70.5,114.5C 71.8333,113.833 73.1667,113.167 74.5,112.5 Z"/></g>
<g><path style="opacity:1" fill="#fee8d3" d="M 74.5,112.5 C 74.8333,112.5 75.1667,112.5 75.5,112.5C 76.8333,132.167 76.8333,151.833 75.5,171.5C 75.1667,171.5 74.8333,171.5 74.5,171.5C 74.5,161.833 74.5,152.167 74.5,142.5C 74.5,142.167 74.5,141.833 74.5,141.5C 74.5,131.833 74.5,122.167 74.5,112.5 Z"/></g>
<g><path style="opacity:1" fill="#fddec3" d="M 70.5,114.5 C 70.5,122.833 70.5,131.167 70.5,139.5C 69.5084,139.672 68.8417,139.338 68.5,138.5C 68.5,131.167 68.5,123.833 68.5,116.5C 68.8333,115.5 69.5,114.833 70.5,114.5 Z"/></g>
<g><path style="opacity:1" fill="#f4933a" d="M 68.5,116.5 C 68.5,123.833 68.5,131.167 68.5,138.5C 61.9777,131.064 61.9777,123.73 68.5,116.5 Z"/></g>
<g><path style="opacity:1" fill="#ebf6ef" d="M 172.5,118.5 C 173.5,118.5 174.5,118.5 175.5,118.5C 175.5,124.5 175.5,130.5 175.5,136.5C 174.167,136.5 172.833,136.5 171.5,136.5C 171.211,130.409 171.545,124.409 172.5,118.5 Z"/></g>
<g><path style="opacity:1" fill="#6dbb8b" d="M 172.5,118.5 C 173.568,117.566 174.901,117.232 176.5,117.5C 176.823,124.022 176.49,130.355 175.5,136.5C 175.5,130.5 175.5,124.5 175.5,118.5C 174.5,118.5 173.5,118.5 172.5,118.5 Z"/></g>
<g><path style="opacity:1" fill="#f8fbf9" d="M 182.5,117.5 C 185.119,117.232 187.619,117.565 190,118.5C 190.499,124.491 190.666,130.491 190.5,136.5C 187.5,136.5 184.5,136.5 181.5,136.5C 181.209,130.077 181.542,123.744 182.5,117.5 Z"/></g>
<g><path style="opacity:1" fill="#f1f8f4" d="M 197.5,117.5 C 198.5,117.5 199.5,117.5 200.5,117.5C 200.5,123.833 200.5,130.167 200.5,136.5C 199.167,136.5 197.833,136.5 196.5,136.5C 196.745,131.946 196.412,127.446 195.5,123C 196.077,121.1 196.744,119.267 197.5,117.5 Z"/></g>
<g><path style="opacity:1" fill="#f1f8f3" d="M 206.5,117.5 C 209.448,117.223 212.281,117.556 215,118.5C 215.807,124.416 215.641,130.25 214.5,136C 211.571,136.777 208.737,136.61 206,135.5C 205.212,129.418 205.379,123.418 206.5,117.5 Z"/></g>
<g><path style="opacity:1" fill="#f9fcfa" d="M 221.5,118.5 C 222.5,118.5 223.5,118.5 224.5,118.5C 224.5,124.5 224.5,130.5 224.5,136.5C 223.5,136.5 222.5,136.5 221.5,136.5C 221.153,130.42 221.153,124.42 221.5,118.5 Z"/></g>
<g><path style="opacity:1" fill="#8fcaa6" d="M 221.5,118.5 C 222.568,117.566 223.901,117.232 225.5,117.5C 225.823,124.022 225.49,130.355 224.5,136.5C 224.5,130.5 224.5,124.5 224.5,118.5C 223.5,118.5 222.5,118.5 221.5,118.5 Z"/></g>
<g><path style="opacity:1" fill="#ebf6ef" d="M 231.5,117.5 C 239.75,115.585 242.75,118.752 240.5,127C 242.572,135.761 239.239,138.927 230.5,136.5C 230.209,130.077 230.542,123.744 231.5,117.5 Z"/></g>
<g><path style="opacity:1" fill="#62b47f" d="M 184.5,121.5 C 185.5,121.5 186.5,121.5 187.5,121.5C 187.5,125.5 187.5,129.5 187.5,133.5C 186.5,133.5 185.5,133.5 184.5,133.5C 184.5,129.5 184.5,125.5 184.5,121.5 Z"/></g>
<g><path style="opacity:1" fill="#329e5a" d="M 209.5,121.5 C 210.794,123.048 211.461,125.048 211.5,127.5C 211.167,129.5 210.833,131.5 210.5,133.5C 209.509,129.555 209.176,125.555 209.5,121.5 Z"/></g>
<g><path style="opacity:1" fill="#339e5a" d="M 234.5,121.5 C 235.794,123.048 236.461,125.048 236.5,127.5C 236.167,129.5 235.833,131.5 235.5,133.5C 234.509,129.555 234.176,125.555 234.5,121.5 Z"/></g>
<g><path style="opacity:1" fill="#fef4eb" d="M 126.5,91.5 C 131.473,97.1396 136.806,102.473 142.5,107.5C 142.5,108.5 142.5,109.5 142.5,110.5C 141.637,109.537 140.97,109.537 140.5,110.5C 142.283,114.031 141.283,115.531 137.5,115C 137.031,111.92 136.865,108.754 137,105.5C 134.542,101.619 133.042,101.786 132.5,106C 133.606,108.752 134.106,111.586 134,114.5C 132.667,115.833 131.333,115.833 130,114.5C 130.359,109.193 130.359,103.859 130,98.5C 129.623,97.0577 128.79,96.0577 127.5,95.5C 127.44,94.9569 127.107,94.6236 126.5,94.5C 125.178,103.992 125.178,113.325 126.5,122.5C 130.131,129.472 131.131,129.139 129.5,121.5C 134.903,121.683 135.903,124.016 132.5,128.5C 133.473,130.64 134.973,132.307 137,133.5C 137.438,128.13 137.438,122.797 137,117.5C 138.333,116.167 139.667,116.167 141,117.5C 140.078,121.298 139.578,125.298 139.5,129.5C 139.833,131.833 140.167,134.167 140.5,136.5C 141.183,136.863 141.85,137.196 142.5,137.5C 142.5,137.833 142.5,138.167 142.5,138.5C 142.631,139.239 142.464,139.906 142,140.5C 135.809,135.5 129.976,130.166 124.5,124.5C 123.856,113.116 124.523,102.116 126.5,91.5 Z"/></g>
<g><path style="opacity:1" fill="#f8c28d" d="M 91.5,84.5 C 91.5,104.833 91.5,125.167 91.5,145.5C 90.6681,125.337 90.1681,105.004 90,84.5C 89.8319,105.004 89.3319,125.337 88.5,145.5C 88.5,125.167 88.5,104.833 88.5,84.5C 89.5,83.1667 90.5,83.1667 91.5,84.5 Z"/></g>
<g><path style="opacity:1" fill="#f9cca1" d="M 75.5,112.5 C 75.8417,111.662 76.5084,111.328 77.5,111.5C 77.5,131.833 77.5,152.167 77.5,172.5C 76.5084,172.672 75.8417,172.338 75.5,171.5C 76.8333,151.833 76.8333,132.167 75.5,112.5 Z"/></g>
<g><path style="opacity:1" fill="#fef2e7" d="M 79.5,172.5 C 80.5045,171.317 81.3378,169.984 82,168.5C 82.6667,159.5 82.6667,150.5 82,141.5C 79.7993,138.985 80.1326,136.985 83,135.5C 84.7324,135.734 85.5658,136.734 85.5,138.5C 84.2187,147.823 84.2187,157.156 85.5,166.5C 87.0116,165.009 88.0116,163.176 88.5,161C 92.3665,160.692 93.3665,162.359 91.5,166C 87.3328,168.034 83.3328,170.201 79.5,172.5 Z"/></g>
<g><path style="opacity:1" fill="#455b65" d="M 263.5,136.5 C 274.172,136.333 284.839,136.5 295.5,137C 298.167,139.667 298.167,142.333 295.5,145C 285.167,145.667 274.833,145.667 264.5,145C 261.001,142.514 260.668,139.681 263.5,136.5 Z"/></g>
<g><path style="opacity:1" fill="#465c66" d="M 14.5,137.5 C 25.1719,137.333 35.8385,137.5 46.5,138C 49.1667,140.667 49.1667,143.333 46.5,146C 35.8333,146.667 25.1667,146.667 14.5,146C 11.8987,143.17 11.8987,140.337 14.5,137.5 Z"/></g>
<g><path style="opacity:1" fill="#feeede" d="M 142.5,147.5 C 142.483,149.028 141.816,149.528 140.5,149C 132.615,141.777 124.782,134.61 117,127.5C 116.779,116.311 116.279,105.144 115.5,94C 115.437,91.0585 116.77,90.0585 119.5,91C 120.749,93.2096 120.582,95.3763 119,97.5C 118.333,107.167 118.333,116.833 119,126.5C 126.653,133.65 134.486,140.65 142.5,147.5 Z"/></g>
<g><path style="opacity:1" fill="#f38b24" d="M 74.5,142.5 C 74.5,152.167 74.5,161.833 74.5,171.5C 72.9382,171.267 71.6049,170.6 70.5,169.5C 70.5,161.167 70.5,152.833 70.5,144.5C 71.5137,143.326 72.847,142.66 74.5,142.5 Z"/></g>
<g><path style="opacity:1" fill="#f38f2c" d="M 99.5,141.5 C 100.458,141.953 101.292,142.619 102,143.5C 102.667,152.5 102.667,161.5 102,170.5C 94.2701,177.736 86.4368,184.736 78.5,191.5C 77.412,189.484 76.412,187.317 75.5,185C 75.5699,184.235 75.9033,183.735 76.5,183.5C 76.6964,185.646 77.6964,185.812 79.5,184C 83.6478,180.096 87.9811,176.429 92.5,173C 94.7899,171.223 96.4566,169.056 97.5,166.5C 98.1667,158.167 98.8333,149.833 99.5,141.5 Z"/></g>
<g><path style="opacity:1" fill="#fdedde" d="M 142.5,156.5 C 142.5,157.5 142.5,158.5 142.5,159.5C 131.539,150.376 120.705,141.043 110,131.5C 109.8,117.141 109.3,102.808 108.5,88.5C 108.434,86.7336 109.268,85.7336 111,85.5C 114.005,86.886 114.338,88.886 112,91.5C 111.333,104.5 111.333,117.5 112,130.5C 122.039,139.377 132.206,148.044 142.5,156.5 Z"/></g>
<g><path style="opacity:1" fill="#f5faf6" d="M 166.5,145.5 C 169.5,145.5 172.5,145.5 175.5,145.5C 175.666,151.509 175.499,157.509 175,163.5C 172.168,164.786 169.335,164.786 166.5,163.5C 166.5,157.5 166.5,151.5 166.5,145.5 Z"/></g>
<g><path style="opacity:1" fill="#f0f8f3" d="M 181.5,145.5 C 182.833,145.5 184.167,145.5 185.5,145.5C 185.5,151.833 185.5,158.167 185.5,164.5C 184.167,164.5 182.833,164.5 181.5,164.5C 181.177,158.067 181.177,151.734 181.5,145.5 Z"/></g>
<g><path style="opacity:1" fill="#eff7f2" d="M 191.5,145.5 C 194.5,145.5 197.5,145.5 200.5,145.5C 200.666,151.509 200.499,157.509 200,163.5C 197,164.833 194,164.833 191,163.5C 190.212,157.418 190.379,151.418 191.5,145.5 Z"/></g>
<g><path style="opacity:1" fill="#f9fcfa" d="M 209.5,145.5 C 209.5,151.5 209.5,157.5 209.5,163.5C 208.5,163.5 207.5,163.5 206.5,163.5C 206.718,158.789 206.385,154.122 205.5,149.5C 205.545,146.811 206.879,145.477 209.5,145.5 Z"/></g>
<g><path style="opacity:1" fill="#a0d3b3" d="M 209.5,145.5 C 210.49,151.645 210.823,157.978 210.5,164.5C 208.901,164.768 207.568,164.434 206.5,163.5C 207.5,163.5 208.5,163.5 209.5,163.5C 209.5,157.5 209.5,151.5 209.5,145.5 Z"/></g>
<g><path style="opacity:1" fill="#eaf5ee" d="M 215.5,145.5 C 224.239,143.073 227.572,146.239 225.5,155C 227.189,163.551 224.022,166.384 216,163.5C 215.501,157.509 215.334,151.509 215.5,145.5 Z"/></g>
<g><path style="opacity:1" fill="#f8fbf9" d="M 234.5,163.5 C 233.5,163.5 232.5,163.5 231.5,163.5C 231.817,159.298 231.483,155.298 230.5,151.5C 229.599,147.759 230.932,145.759 234.5,145.5C 234.5,151.5 234.5,157.5 234.5,163.5 Z"/></g>
<g><path style="opacity:1" fill="#e9f4ed" d="M 240.5,145.5 C 241.458,145.953 242.292,146.619 243,147.5C 242.928,152.308 243.761,156.808 245.5,161C 244.383,162.892 242.716,163.725 240.5,163.5C 239.194,157.599 239.194,151.599 240.5,145.5 Z"/></g>
<g><path style="opacity:1" fill="#f49236" d="M 68.5,145.5 C 68.5,152.833 68.5,160.167 68.5,167.5C 61.9206,160.134 61.9206,152.801 68.5,145.5 Z"/></g>
<g><path style="opacity:1" fill="#f3902f" d="M 106.5,147.5 C 107.458,147.953 108.292,148.619 109,149.5C 109.097,153.766 109.263,157.932 109.5,162C 111.108,162.658 112.275,162.158 113,160.5C 112.649,158.114 112.815,155.781 113.5,153.5C 114.478,153.977 115.311,154.643 116,155.5C 116.168,176.337 116.668,197.004 117.5,217.5C 115.786,218.738 113.786,219.405 111.5,219.5C 111.333,203.163 111.5,186.83 112,170.5C 114.363,166.674 113.197,165.007 108.5,165.5C 109.068,168.588 109.068,171.588 108.5,174.5C 100.121,181.885 91.7882,189.218 83.5,196.5C 81.8089,195.136 80.1423,193.803 78.5,192.5C 88.0523,186.287 96.719,178.953 104.5,170.5C 105.167,162.833 105.833,155.167 106.5,147.5 Z"/></g>
<g><path style="opacity:1" fill="#fdeee0" d="M 142.5,165.5 C 142.5,165.833 142.5,166.167 142.5,166.5C 142.631,167.239 142.464,167.906 142,168.5C 129.872,158.708 118.039,148.541 106.5,138C 105.167,137.667 103.833,137.333 102.5,137C 100.633,133.359 101.633,131.692 105.5,132C 106.676,134.686 108.343,137.019 110.5,139C 121.013,148.08 131.68,156.913 142.5,165.5 Z"/></g>
<g><path style="opacity:1" fill="#60b37d" d="M 169.5,148.5 C 170.5,148.5 171.5,148.5 172.5,148.5C 172.5,152.5 172.5,156.5 172.5,160.5C 171.5,160.5 170.5,160.5 169.5,160.5C 169.5,156.5 169.5,152.5 169.5,148.5 Z"/></g>
<g><path style="opacity:1" fill="#23974e" d="M 194.5,148.5 C 195.794,150.048 196.461,152.048 196.5,154.5C 196.167,156.5 195.833,158.5 195.5,160.5C 194.509,156.555 194.176,152.555 194.5,148.5 Z"/></g>
<g><path style="opacity:1" fill="#34a05d" d="M 219.5,149.5 C 220.787,150.871 221.453,152.705 221.5,155C 221.167,156.833 220.833,158.667 220.5,160.5C 219.511,156.893 219.177,153.226 219.5,149.5 Z"/></g>
<g><path style="opacity:1" fill="#fddfc4" d="M 70.5,144.5 C 70.5,152.833 70.5,161.167 70.5,169.5C 69.5,169.167 68.8333,168.5 68.5,167.5C 68.5,160.167 68.5,152.833 68.5,145.5C 69.1667,145.167 69.8333,144.833 70.5,144.5 Z"/></g>
<g><path style="opacity:1" fill="#a7d6ba" d="M 230.5,151.5 C 231.483,155.298 231.817,159.298 231.5,163.5C 232.5,163.5 233.5,163.5 234.5,163.5C 233.432,164.434 232.099,164.768 230.5,164.5C 230.5,160.167 230.5,155.833 230.5,151.5 Z"/></g>
<g><path style="opacity:1" fill="#f7b777" d="M 120.5,159.5 C 119.503,178.326 119.17,197.326 119.5,216.5C 119.5,217.167 119.167,217.5 118.5,217.5C 118.167,197.822 118.5,178.155 119.5,158.5C 120.107,158.624 120.44,158.957 120.5,159.5 Z"/></g>
<g><path style="opacity:1" fill="#f38f2c" d="M 120.5,159.5 C 121.458,159.953 122.292,160.619 123,161.5C 123.782,173.356 123.615,185.189 122.5,197C 122.437,199.942 123.77,200.942 126.5,200C 127.752,198.172 127.752,196.339 126.5,194.5C 126.173,184.652 126.506,174.986 127.5,165.5C 128.458,165.953 129.292,166.619 130,167.5C 130.665,175.856 130.499,184.189 129.5,192.5C 131.948,192.99 133.615,192.157 134.5,190C 132.321,183.636 131.988,177.136 133.5,170.5C 135.197,171.364 136.363,172.697 137,174.5C 137.536,184.865 137.536,195.198 137,205.5C 138.333,206.833 139.667,206.833 141,205.5C 141.384,203.803 141.218,202.137 140.5,200.5C 140.175,192.648 140.508,184.982 141.5,177.5C 142.338,177.158 142.672,176.492 142.5,175.5C 143.097,175.735 143.43,176.235 143.5,177C 142.692,190.801 142.192,204.634 142,218.5C 141.392,220.066 140.558,221.4 139.5,222.5C 139.044,218.398 139.711,214.565 141.5,211C 139.464,207.707 137.464,207.873 135.5,211.5C 137.359,215.557 138.026,219.891 137.5,224.5C 132.367,226.492 128.034,225.492 124.5,221.5C 125.135,218.133 126.135,214.8 127.5,211.5C 126.976,208.604 125.476,207.937 123,209.5C 122.825,212.157 122.992,214.824 123.5,217.5C 122.732,216.737 122.232,215.737 122,214.5C 121.292,215.381 120.458,216.047 119.5,216.5C 119.17,197.326 119.503,178.326 120.5,159.5 Z"/></g>
<g><path style="opacity:1" fill="#feeddd" d="M 142.5,175.5 C 142.672,176.492 142.338,177.158 141.5,177.5C 141.44,176.957 141.107,176.624 140.5,176.5C 139.18,184.657 139.18,192.657 140.5,200.5C 141.218,202.137 141.384,203.803 141,205.5C 139.667,206.833 138.333,206.833 137,205.5C 137.536,195.198 137.536,184.865 137,174.5C 136.363,172.697 135.197,171.364 133.5,170.5C 131.988,177.136 132.321,183.636 134.5,190C 133.615,192.157 131.948,192.99 129.5,192.5C 130.499,184.189 130.665,175.856 130,167.5C 129.292,166.619 128.458,165.953 127.5,165.5C 127.44,164.957 127.107,164.624 126.5,164.5C 125.177,174.659 125.177,184.659 126.5,194.5C 127.752,196.339 127.752,198.172 126.5,200C 123.77,200.942 122.437,199.942 122.5,197C 123.615,185.189 123.782,173.356 123,161.5C 122.292,160.619 121.458,159.953 120.5,159.5C 120.44,158.957 120.107,158.624 119.5,158.5C 118.5,178.155 118.167,197.822 118.5,217.5C 118.167,217.5 117.833,217.5 117.5,217.5C 116.668,197.004 116.168,176.337 116,155.5C 115.311,154.643 114.478,153.977 113.5,153.5C 112.815,155.781 112.649,158.114 113,160.5C 112.275,162.158 111.108,162.658 109.5,162C 109.263,157.932 109.097,153.766 109,149.5C 108.292,148.619 107.458,147.953 106.5,147.5C 106.44,146.957 106.107,146.624 105.5,146.5C 104.502,154.472 104.169,162.472 104.5,170.5C 96.719,178.953 88.0523,186.287 78.5,192.5C 78.5,192.167 78.5,191.833 78.5,191.5C 86.4368,184.736 94.2701,177.736 102,170.5C 102.667,161.5 102.667,152.5 102,143.5C 101.292,142.619 100.458,141.953 99.5,141.5C 99.44,140.957 99.1067,140.624 98.5,140.5C 97.502,149.141 97.1686,157.808 97.5,166.5C 96.4566,169.056 94.7899,171.223 92.5,173C 87.9811,176.429 83.6478,180.096 79.5,184C 77.6964,185.812 76.6964,185.646 76.5,183.5C 82.7947,178.376 88.9613,173.043 95,167.5C 95.8126,144.809 95.646,122.143 94.5,99.5C 94.4342,97.7336 95.2676,96.7336 97,96.5C 98.7324,96.7336 99.5658,97.7336 99.5,99.5C 98.3703,112.474 98.2036,125.474 99,138.5C 113.438,150.96 127.938,163.293 142.5,175.5 Z"/></g>
<g><path style="opacity:1" fill="#f9c897" d="M 106.5,147.5 C 105.833,155.167 105.167,162.833 104.5,170.5C 104.169,162.472 104.502,154.472 105.5,146.5C 106.107,146.624 106.44,146.957 106.5,147.5 Z"/></g>
<g><path style="opacity:1" fill="#f8bf87" d="M 99.5,141.5 C 98.8333,149.833 98.1667,158.167 97.5,166.5C 97.1686,157.808 97.502,149.141 98.5,140.5C 99.1067,140.624 99.44,140.957 99.5,141.5 Z"/></g>
<g><path style="opacity:1" fill="#e8f4ec" d="M 172.5,172.5 C 173.5,172.5 174.5,172.5 175.5,172.5C 175.5,178.833 175.5,185.167 175.5,191.5C 174.167,191.5 172.833,191.5 171.5,191.5C 171.249,185.108 171.582,178.775 172.5,172.5 Z"/></g>
<g><path style="opacity:1" fill="#f5faf6" d="M 181.5,172.5 C 184.5,172.5 187.5,172.5 190.5,172.5C 190.5,178.833 190.5,185.167 190.5,191.5C 187.5,191.5 184.5,191.5 181.5,191.5C 181.5,185.167 181.5,178.833 181.5,172.5 Z"/></g>
<g><path style="opacity:1" fill="#e6f3eb" d="M 196.5,172.5 C 197.833,172.5 199.167,172.5 200.5,172.5C 200.5,178.833 200.5,185.167 200.5,191.5C 199.167,191.5 197.833,191.5 196.5,191.5C 196.099,185.093 196.099,178.76 196.5,172.5 Z"/></g>
<g><path style="opacity:1" fill="#eef7f2" d="M 206.5,172.5 C 209.448,172.223 212.281,172.556 215,173.5C 215.807,179.416 215.641,185.25 214.5,191C 211.571,191.777 208.737,191.61 206,190.5C 205.212,184.418 205.379,178.418 206.5,172.5 Z"/></g>
<g><path style="opacity:1" fill="#f8fbf9" d="M 221.5,173.5 C 222.5,173.5 223.5,173.5 224.5,173.5C 224.5,179.5 224.5,185.5 224.5,191.5C 223.5,191.5 222.5,191.5 221.5,191.5C 221.15,185.398 221.15,179.398 221.5,173.5 Z"/></g>
<g><path style="opacity:1" fill="#90cba7" d="M 221.5,173.5 C 222.568,172.566 223.901,172.232 225.5,172.5C 225.823,179.022 225.49,185.355 224.5,191.5C 224.5,185.5 224.5,179.5 224.5,173.5C 223.5,173.5 222.5,173.5 221.5,173.5 Z"/></g>
<g><path style="opacity:1" fill="#64b580" d="M 184.5,176.5 C 185.5,176.5 186.5,176.5 187.5,176.5C 187.5,180.5 187.5,184.5 187.5,188.5C 186.5,188.5 185.5,188.5 184.5,188.5C 184.5,184.5 184.5,180.5 184.5,176.5 Z"/></g>
<g><path style="opacity:1" fill="#259951" d="M 209.5,176.5 C 210.787,177.871 211.453,179.705 211.5,182C 211.167,183.833 210.833,185.667 210.5,187.5C 209.511,183.893 209.177,180.226 209.5,176.5 Z"/></g>
<g><path style="opacity:1" fill="#e8f2ec" d="M 231.5,175.5 C 233.31,179.31 233.81,183.31 233,187.5C 232.623,188.942 231.79,189.942 230.5,190.5C 230.179,185.305 230.513,180.305 231.5,175.5 Z"/></g>
<g><path style="opacity:1" fill="#f38c26" d="M 109.5,219.5 C 108.167,219.167 106.833,218.833 105.5,218.5C 105.5,206.167 105.5,193.833 105.5,181.5C 105.712,179.616 106.712,178.283 108.5,177.5C 109.499,191.484 109.833,205.484 109.5,219.5 Z"/></g>
<g><path style="opacity:1" fill="#f7b574" d="M 127.5,165.5 C 126.506,174.986 126.173,184.652 126.5,194.5C 125.177,184.659 125.177,174.659 126.5,164.5C 127.107,164.624 127.44,164.957 127.5,165.5 Z"/></g>
<g><path style="opacity:1" fill="#f8c28b" d="M 101.5,183.5 C 101.56,182.957 101.893,182.624 102.5,182.5C 103.499,194.148 103.832,205.814 103.5,217.5C 102.833,217.5 102.5,217.167 102.5,216.5C 102.828,205.321 102.495,194.321 101.5,183.5 Z"/></g>
<g><path style="opacity:1" fill="#f6aa60" d="M 141.5,177.5 C 140.508,184.982 140.175,192.648 140.5,200.5C 139.18,192.657 139.18,184.657 140.5,176.5C 141.107,176.624 141.44,176.957 141.5,177.5 Z"/></g>
<g><path style="opacity:1" fill="#f38c25" d="M 101.5,183.5 C 102.495,194.321 102.828,205.321 102.5,216.5C 100.5,215.167 98.8333,213.5 97.5,211.5C 98.4927,203.35 98.8261,195.017 98.5,186.5C 99.1667,185.167 100.167,184.167 101.5,183.5 Z"/></g>
<g><path style="opacity:1" fill="#fef3e8" d="M 111.5,219.5 C 110.833,219.5 110.167,219.5 109.5,219.5C 109.833,205.484 109.499,191.484 108.5,177.5C 106.712,178.283 105.712,179.616 105.5,181.5C 104.833,193.5 104.167,205.5 103.5,217.5C 103.832,205.814 103.499,194.148 102.5,182.5C 101.893,182.624 101.56,182.957 101.5,183.5C 100.167,184.167 99.1667,185.167 98.5,186.5C 97.6773,189.977 97.1773,193.644 97,197.5C 96.8214,194.447 96.3214,191.447 95.5,188.5C 94.8933,188.624 94.56,188.957 94.5,189.5C 93.1667,190.167 92.1667,191.167 91.5,192.5C 90.8333,194.5 90.1667,196.5 89.5,198.5C 88.8423,197.602 88.1757,196.602 87.5,195.5C 86.5,196.167 85.5,196.833 84.5,197.5C 83.8933,197.376 83.56,197.043 83.5,196.5C 91.7882,189.218 100.121,181.885 108.5,174.5C 109.068,171.588 109.068,168.588 108.5,165.5C 113.197,165.007 114.363,166.674 112,170.5C 111.5,186.83 111.333,203.163 111.5,219.5 Z"/></g>
<g><path style="opacity:1" fill="#f38c25" d="M 94.5,189.5 C 95.4767,192.287 95.81,195.287 95.5,198.5C 94.1667,198.5 92.8333,198.5 91.5,198.5C 91.5,196.5 91.5,194.5 91.5,192.5C 92.1667,191.167 93.1667,190.167 94.5,189.5 Z"/></g>
<g><path style="opacity:1" fill="#f9c08d" d="M 91.5,192.5 C 91.5,194.5 91.5,196.5 91.5,198.5C 90.8333,199.833 90.1667,199.833 89.5,198.5C 90.1667,196.5 90.8333,194.5 91.5,192.5 Z"/></g>
<g><path style="opacity:1" fill="#fafcfb" d="M 166.5,200.5 C 169.5,200.5 172.5,200.5 175.5,200.5C 175.5,206.5 175.5,212.5 175.5,218.5C 172.833,218.5 170.167,218.5 167.5,218.5C 167.737,217.209 167.404,216.209 166.5,215.5C 166.5,210.5 166.5,205.5 166.5,200.5 Z"/></g>
<g><path style="opacity:1" fill="#f3f9f5" d="M 185.5,218.5 C 184.167,218.5 182.833,218.5 181.5,218.5C 181.15,212.401 181.15,206.401 181.5,200.5C 182.833,200.5 184.167,200.5 185.5,200.5C 185.5,206.5 185.5,212.5 185.5,218.5 Z"/></g>
<g><path style="opacity:1" fill="#f3f9f5" d="M 194.5,218.5 C 192.847,218.34 191.514,217.674 190.5,216.5C 190.5,211.167 190.5,205.833 190.5,200.5C 193.833,200.5 197.167,200.5 200.5,200.5C 200.5,206.5 200.5,212.5 200.5,218.5C 198.5,218.5 196.5,218.5 194.5,218.5 Z"/></g>
<g><path style="opacity:1" fill="#f6faf8" d="M 206.5,200.5 C 207.5,200.5 208.5,200.5 209.5,200.5C 209.5,205.167 209.5,209.833 209.5,214.5C 209.167,215.5 208.5,216.167 207.5,216.5C 206.115,211.296 205.782,205.963 206.5,200.5 Z"/></g>
<g><path style="opacity:1" fill="#98ceac" d="M 206.5,200.5 C 207.568,199.566 208.901,199.232 210.5,199.5C 210.5,203.833 210.5,208.167 210.5,212.5C 210.672,213.492 210.338,214.158 209.5,214.5C 209.5,209.833 209.5,205.167 209.5,200.5C 208.5,200.5 207.5,200.5 206.5,200.5 Z"/></g>
<g><path style="opacity:1" fill="#f9c99b" d="M 105.5,181.5 C 105.5,193.833 105.5,206.167 105.5,218.5C 104.508,218.672 103.842,218.338 103.5,217.5C 104.167,205.5 104.833,193.5 105.5,181.5 Z"/></g>
<g><path style="opacity:1" fill="#facb9f" d="M 98.5,186.5 C 98.8261,195.017 98.4927,203.35 97.5,211.5C 96.1968,207.333 96.1968,203.166 97.5,199C 96.9056,198.536 96.2389,198.369 95.5,198.5C 95.81,195.287 95.4767,192.287 94.5,189.5C 94.56,188.957 94.8933,188.624 95.5,188.5C 96.3214,191.447 96.8214,194.447 97,197.5C 97.1773,193.644 97.6773,189.977 98.5,186.5 Z"/></g>
<g><path style="opacity:1" fill="#5fb37d" d="M 169.5,203.5 C 170.5,203.5 171.5,203.5 172.5,203.5C 172.5,207.5 172.5,211.5 172.5,215.5C 171.5,215.5 170.5,215.5 169.5,215.5C 169.5,211.5 169.5,207.5 169.5,203.5 Z"/></g>
<g><path style="opacity:1" fill="#21974d" d="M 194.5,203.5 C 195.794,205.048 196.461,207.048 196.5,209.5C 196.167,211.5 195.833,213.5 195.5,215.5C 194.509,211.555 194.176,207.555 194.5,203.5 Z"/></g>
<g><path style="opacity:1" fill="#fef2e8" d="M 124.5,221.5 C 123.766,220.292 123.433,218.959 123.5,217.5C 122.992,214.824 122.825,212.157 123,209.5C 125.476,207.937 126.976,208.604 127.5,211.5C 126.135,214.8 125.135,218.133 124.5,221.5 Z"/></g>
<g><path style="opacity:1" fill="#fef1e6" d="M 130.5,208.5 C 132.635,208.147 133.968,208.98 134.5,211C 133.076,215.377 132.076,219.877 131.5,224.5C 130.269,219.096 129.936,213.763 130.5,208.5 Z"/></g>
<g><path style="opacity:1" fill="#fef2e7" d="M 139.5,222.5 C 139.167,223.5 138.5,224.167 137.5,224.5C 138.026,219.891 137.359,215.557 135.5,211.5C 137.464,207.873 139.464,207.707 141.5,211C 139.711,214.565 139.044,218.398 139.5,222.5 Z"/></g>
<g><path style="opacity:1" fill="#445a64" d="M 75.5,214.5 C 80.4943,214.329 82.3276,216.662 81,221.5C 74.1667,228.333 67.3333,235.167 60.5,242C 55,243.167 52.8333,241 54,235.5C 61.6711,228.995 68.8378,221.995 75.5,214.5 Z"/></g>
<g><path style="opacity:1" fill="#475d67" d="M 232.5,213.5 C 234.308,213.491 235.975,213.991 237.5,215C 244.333,221.833 251.167,228.667 258,235.5C 258.443,241.04 255.943,242.873 250.5,241C 243.667,234.167 236.833,227.333 230,220.5C 229.333,219.167 229.333,217.833 230,216.5C 231.045,215.627 231.878,214.627 232.5,213.5 Z"/></g>
<g><path style="opacity:1" fill="#4a5f69" d="M 120.5,240.5 C 145.169,240.333 169.836,240.5 194.5,241C 198.629,243.631 199.462,247.131 197,251.5C 196.25,252.126 195.416,252.626 194.5,253C 169.833,253.667 145.167,253.667 120.5,253C 115.232,248.837 115.232,244.671 120.5,240.5 Z"/></g>
<g><path style="opacity:1" fill="#4a5f69" d="M 123.5,280.5 C 125.5,280.5 127.5,280.5 129.5,280.5C 129.5,282.5 129.5,284.5 129.5,286.5C 132.713,286.81 135.713,286.477 138.5,285.5C 138.799,283.396 138.466,281.396 137.5,279.5C 132.864,276.696 128.364,273.696 124,270.5C 123.501,266.848 123.335,263.182 123.5,259.5C 130.508,259.334 137.508,259.5 144.5,260C 145.444,262.719 145.777,265.552 145.5,268.5C 143.167,268.5 140.833,268.5 138.5,268.5C 138.5,266.833 138.5,265.167 138.5,263.5C 135.833,263.5 133.167,263.5 130.5,263.5C 130.201,265.604 130.534,267.604 131.5,269.5C 136.086,272.376 140.586,275.376 145,278.5C 145.667,281.833 145.667,285.167 145,288.5C 144.5,289 144,289.5 143.5,290C 137.5,290.667 131.5,290.667 125.5,290C 123.656,287.196 122.989,284.03 123.5,280.5 Z"/></g>
<g><path style="opacity:1" fill="#919ea4" d="M 159.5,259.5 C 157.167,259.5 154.833,259.5 152.5,259.5C 152.5,269.5 152.5,279.5 152.5,289.5C 154.833,289.5 157.167,289.5 159.5,289.5C 157.052,290.473 154.385,290.806 151.5,290.5C 151.5,279.833 151.5,269.167 151.5,258.5C 154.385,258.194 157.052,258.527 159.5,259.5 Z"/></g>
<g><path style="opacity:1" fill="#425963" d="M 159.5,259.5 C 159.5,269.5 159.5,279.5 159.5,289.5C 157.167,289.5 154.833,289.5 152.5,289.5C 152.5,279.5 152.5,269.5 152.5,259.5C 154.833,259.5 157.167,259.5 159.5,259.5 Z"/></g>
<g><path style="opacity:1" fill="#71828a" d="M 166.5,259.5 C 166.5,269.5 166.5,279.5 166.5,289.5C 168.5,289.5 170.5,289.5 172.5,289.5C 170.393,290.468 168.059,290.802 165.5,290.5C 165.172,279.986 165.506,269.653 166.5,259.5 Z"/></g>
<g><path style="opacity:1" fill="#435a64" d="M 166.5,259.5 C 168.5,259.5 170.5,259.5 172.5,259.5C 172.5,263.5 172.5,267.5 172.5,271.5C 175.5,271.5 178.5,271.5 181.5,271.5C 182.483,267.702 182.817,263.702 182.5,259.5C 184.5,259.5 186.5,259.5 188.5,259.5C 188.5,269.5 188.5,279.5 188.5,289.5C 186.5,289.5 184.5,289.5 182.5,289.5C 182.818,284.968 182.485,280.634 181.5,276.5C 178.5,276.5 175.5,276.5 172.5,276.5C 172.5,280.833 172.5,285.167 172.5,289.5C 170.5,289.5 168.5,289.5 166.5,289.5C 166.5,279.5 166.5,269.5 166.5,259.5 Z"/></g>
<g><path style="opacity:1" fill="#99a6ab" d="M 188.5,259.5 C 186.5,259.5 184.5,259.5 182.5,259.5C 182.817,263.702 182.483,267.702 181.5,271.5C 181.5,267.167 181.5,262.833 181.5,258.5C 184.059,258.198 186.393,258.532 188.5,259.5 Z"/></g>
<g><path style="opacity:1" fill="#b5bfc2" d="M 188.5,259.5 C 189.494,269.653 189.828,279.986 189.5,290.5C 186.833,290.5 184.167,290.5 181.5,290.5C 181.5,285.833 181.5,281.167 181.5,276.5C 182.485,280.634 182.818,284.968 182.5,289.5C 184.5,289.5 186.5,289.5 188.5,289.5C 188.5,279.5 188.5,269.5 188.5,259.5 Z"/></g>
<g><path style="opacity:1" fill="#adb7bb" d="M 123.5,280.5 C 125.607,279.532 127.941,279.198 130.5,279.5C 130.5,281.5 130.5,283.5 130.5,285.5C 133.167,285.5 135.833,285.5 138.5,285.5C 135.713,286.477 132.713,286.81 129.5,286.5C 129.5,284.5 129.5,282.5 129.5,280.5C 127.5,280.5 125.5,280.5 123.5,280.5 Z"/></g>
<g><path style="opacity:1" fill="#425963" d="M 130.5,297.5 C 148.503,297.333 166.503,297.5 184.5,298C 188.619,302.073 188.285,305.74 183.5,309C 166.167,309.667 148.833,309.667 131.5,309C 127.92,305.442 127.587,301.609 130.5,297.5 Z"/></g>
<g><path style="opacity:1" fill="#9ca8ad" d="M 175.5,314.5 C 163.655,314.172 151.988,314.505 140.5,315.5C 139.957,315.44 139.624,315.107 139.5,314.5C 151.66,313.175 163.66,313.175 175.5,314.5 Z"/></g>
<g><path style="opacity:1" fill="#435963" d="M 175.5,314.5 C 169.572,323.428 161.239,326.595 150.5,324C 146.387,322.052 143.054,319.219 140.5,315.5C 151.988,314.505 163.655,314.172 175.5,314.5 Z"/></g>
</svg>
